<svg display="none" xmlns="http://www.w3.org/2000/svg">
    <symbol id="upload" viewBox="0 0 48 48">
        <path d="M38.71 20.07c-1.36-6.88-7.43-12.07-14.71-12.07-5.78 0-10.79 3.28-13.3 8.07-6.01.65-10.7 5.74-10.7 
            11.93 0 6.63 5.37 12 12 12h26c5.52 0 10-4.48 10-10 0-5.28-4.11-9.56-9.29-9.93zm-4.71 5.93l-10 10-10-10h6v-8h8v8h6z"/>
    </symbol>

    <symbol id="image" viewBox="0 0 42 34">
        <path d="M37.6646 0.333313H4.33125C2.03333 0.333313 0.164581 2.20206 0.164581 4.49998V29.5C0.164581 31.7979 
            2.03333 33.6666 4.33125 33.6666H37.6646C39.9625 33.6666 41.8312 31.7979 41.8312 29.5V4.49998C41.8312 2.20206 
            39.9625 0.333313 37.6646 0.333313ZM9.53958 6.58331C10.3684 6.58331 11.1632 6.91255 11.7493 7.4986C12.3353 
            8.08465 12.6646 8.87951 12.6646 9.70831C12.6646 10.5371 12.3353 11.332 11.7493 11.918C11.1632 12.5041 10.3684 
            12.8333 9.53958 12.8333C8.71078 12.8333 7.91592 12.5041 7.32987 11.918C6.74382 11.332 6.41458 10.5371 6.41458 
            9.70831C6.41458 8.87951 6.74382 8.08465 7.32987 7.4986C7.91592 6.91255 8.71078 6.58331 9.53958 6.58331ZM20.9979 
            27.4166H6.41458L14.7479 17L17.8729 21.1666L24.1229 12.8333L35.5812 27.4166H20.9979Z"/>
    </symbol>

    <symbol id="brightness" viewBox="0 0 40 40">
        <path d="M20 0C8.97202 0 0 8.97202 0 20C0 31.028 8.97202 40 20 40C31.028 40 40 31.028 40 20C40 8.97202 31.028 0 20 
            0ZM36.5025 20C36.5025 28.3567 30.2587 35.2827 22.1911 36.3577C21.6377 36.4314 21.0795 36.2626 20.6596 35.8947C20.2398 
            35.5267 20 34.9952 20 34.437V5.56309C20 5.00532 20.2409 4.47482 20.6603 4.10716C21.0797 3.73951 21.6381 3.56869 22.1911 
            3.64242C30.2587 4.71726 36.5025 11.6433 36.5025 20Z"/>
    </symbol>

    <symbol id="contrast" viewBox="0 0 40 35">
        <path d="M32.2149 11.9375C32.2149 8.77151 30.9279 5.73515 28.6372 3.49643C26.3465 1.2577 23.2396 0 20 0C16.7604 0 13.6535
             1.2577 11.3628 3.49643C9.07206 5.73515 7.78514 8.77151 7.78514 11.9375C6.13688 12.5644 4.64757 13.5336 3.42016 14.7781C2.19276
             16.0226 1.25654 17.5128 0.676221 19.1456C0.0959059 20.7784 -0.114661 22.5149 0.0590774 24.2351C0.232815 25.9552 0.786714 27.618
             1.68248 29.1084C2.57825 30.5988 3.79452 31.8814 5.24721 32.8674C6.6999 33.8533 8.35436 34.5193 10.0962 34.8191C11.8381 35.1189
             13.6258 35.0454 15.3357 34.6038C17.0457 34.1622 18.6371 33.3629 20 32.2612C21.3629 33.3629 22.9543 34.1622 24.6643 34.6038C26.3742
             35.0454 28.1619 35.1189 29.9038 34.8191C31.6456 34.5193 33.3001 33.8533 34.7528 32.8674C36.2055 31.8814 37.4218 30.5988 38.3175 29.1084C39.2133 
             27.618 39.7672 25.9552 39.9409 24.2351C40.1147 22.5149 39.9041 20.7784 39.3238 19.1456C38.7435 17.5128 37.8072 16.0226 36.5798 14.7781C35.3524 
             13.5336 33.8631 12.5644 32.2149 11.9375V11.9375ZM20 3.56634C21.8119 3.56634 23.5831 4.09144 25.0897 5.07522C26.5962 6.05901 27.7704 7.4573 28.4638 
             9.09328C29.1572 10.7293 29.3386 12.5294 28.9851 14.2662C28.6316 16.0029 27.7591 17.5982 26.4779 18.8503C25.1967 20.1025 23.5643 20.9552 
             21.7873 21.3006C20.0102 21.6461 18.1682 21.4688 16.4942 20.7911C14.8202 20.1135 13.3894 18.966 12.3828 17.4936C11.3761 16.0213 10.8389 
             14.2903 10.8389 12.5195C10.8389 10.145 11.804 7.86771 13.5221 6.18866C15.2401 4.50962 17.5703 3.56634 20 3.56634V3.56634ZM3.20457 
             22.9649C3.21046 21.3437 3.66667 19.7545 4.52449 18.3669C5.38231 16.9793 6.60955 15.8453 8.07524 15.0861C8.50048 16.9801 9.39144 
             18.7445 10.6711 20.2264C11.9507 21.7084 13.5805 22.8634 15.4194 23.5916C15.5348 25.9482 16.3757 28.2158 17.8319 30.0975C16.4728 
             31.0851 14.8602 31.6852 13.1732 31.8311C11.4862 31.9771 9.79084 31.6631 8.27541 30.9241C6.75999 30.1852 5.48382 29.0501 4.58867 
             27.6451C3.69351 26.24 3.21441 24.62 3.20457 22.9649V22.9649ZM27.6343 31.918C26.4134 31.9171 25.205 31.6777 24.0802 31.2139C22.9553 
             30.7501 21.9367 30.0712 21.0841 29.2172C19.7601 27.8938 18.8949 26.1974 18.6106 24.3675C19.0712 24.4275 19.5353 24.4574 20 
             24.4571C22.7826 24.4561 25.4814 23.5266 27.6499 21.8225C29.8184 20.1185 31.3265 17.7419 31.9248 15.0861C33.7147 16.0302 35.1323 
             17.5296 35.9541 19.348C36.7758 21.1664 36.955 23.2004 36.4633 25.1293C35.9716 27.0582 34.8371 28.7723 33.2385 30.0015C31.6399 
             31.2306 29.6683 31.9049 27.6343 31.918Z"/>
    </symbol>

    <symbol id="grayscale" viewBox="0 0 32 32">
        <path d="M20.8,20.8c4.3-4.3,4.3-11.3,0-15.6c-4.3-4.3-11.3-4.3-15.6,0c-4.3,4.3-4.3,11.3,0,15.6c2.1,2.1,5,3.2,7.8,3.2   S18.6,22.9,20.8,20.8z"/>
        <path d="M18.9,24.6l4.5,4.5c0.9-0.4,1.8-0.9,2.6-1.6l-4.6-4.6C20.7,23.5,19.8,24.1,18.9,24.6z"/>
        <path d="M13,26c-0.9,0-1.8-0.1-2.7-0.3c0.3,0.4,0.6,0.7,0.9,1.1c2.1,2.1,5,3.2,7.8,3.2c0.8,0,1.5-0.1,2.3-0.2l-4.3-4.4   C15.7,25.8,14.4,26,13,26z"/>
        <path d="M26.8,11.2c-0.3-0.3-0.7-0.6-1.1-0.9c0.5,2.2,0.4,4.5-0.3,6.6l4.4,4.3C30.5,17.8,29.5,13.9,26.8,11.2z"/>
        <path d="M22.9,21.4l4.6,4.6c0.7-0.8,1.2-1.7,1.6-2.6l-4.5-4.5C24.1,19.8,23.5,20.7,22.9,21.4z"/>
    </symbol>
    
    <symbol id="invert" viewBox="0 0 28 34">
        <path fill-rule="evenodd" clip-rule="evenodd" d="M0.666672 20.3333C0.666672 15.4241 5.11112 8.75745 14 0.333313C22.8889 
            8.75745 27.3333 15.4241 27.3333 20.3333C27.3333 27.5582 21.5869 33.4409 14.4153 33.6603L14 33.6666C6.63621 33.6666 
            0.666672 27.6971 0.666672 20.3333ZM14 4.98831L13.6387 5.35321C7.16331 11.9296 4.00001 17.0479 4.00001 20.3333C4.00001 
            25.8562 8.47716 30.3333 14 30.3333V4.98831Z"/>
    </symbol>

    <symbol id="hue-rotate" viewBox="0 0 40 40">
        <path d="M17.2546 2.27454L16.1174 0L14.9801 2.27454L12.7056 2.55885L14.6025 4.16923L13.8428 6.82361L16.1174 
            5.30877L18.3919 6.82361L17.6322 4.16923L19.5292 2.55885L17.2546 2.27454ZM36.2106 26.5347L34.3137 22.7454L32.4167 
            26.5347L28.6273 27.0101L31.7866 29.6963L30.5243 34.118L34.3137 31.591L38.103 34.118L36.8407 29.6963L40 
            27.0101L36.2106 26.5347ZM7.39907 7.58103L5.88195 4.54907L4.36484 7.58103L1.33288 7.96088L3.85989 10.108L2.84999 
            13.6472L5.88195 11.6252L8.91391 13.6472L7.90401 10.108L10.431 7.96088L7.39907 7.58103ZM0 31.8435C0 33.0581 
            0.473104 34.1999 1.33288 35.0597L4.94029 38.6671C5.80007 39.5269 6.94189 40 8.15649 40C9.37109 40 10.5129 
            39.5269 11.3727 38.6671L37.7255 12.3143C38.5852 11.4546 39.0583 10.3127 39.0583 9.09815C39.0583 7.88354 
            38.5852 6.74173 37.7255 5.88195L34.118 2.27454C32.3985 0.554987 29.4052 0.554987 27.6857 2.27454L1.33288 
            28.6273C0.473104 29.4871 0 30.6289 0 31.8435ZM30.9019 5.49073L34.5093 9.09815L26.3528 17.2546L22.7454 13.6472L30.9019 5.49073Z"/>
    </symbol>

    <symbol id="temperature" viewBox="0 0 22 40">
        <path d="M11 35.6243C7.78983 35.6243 5.17812 33.0126 5.17812 29.8025C5.17812 26.5923 7.78983 23.9806 11 23.9806C14.2101 
            23.9806 16.8219 26.5923 16.8219 29.8025C16.8219 33.0126 14.2101 35.6243 11 35.6243ZM11 26.2584C9.04577 26.2584 7.45593 
            27.8482 7.45593 29.8025C7.45593 31.7567 9.04577 33.3465 11 33.3465C12.9542 33.3465 14.5441 31.7567 14.5441 29.8025C14.5441 
            27.8483 12.9542 26.2584 11 26.2584Z"/>
        <path d="M20.0109 25.0262C19.7158 24.4709 19.0263 24.26 18.4708 24.555C17.9153 24.8502 17.7045 25.5397 17.9995 
            26.0951C18.6016 27.2278 18.9198 28.5098 18.9198 29.8025C18.9198 31.9534 18.0722 33.9657 16.5331 35.4688C14.9946 
            36.9713 12.9603 37.7693 10.8079 37.7198C6.54133 37.6191 3.07476 34.0624 3.08047 29.7916C3.08445 26.7783 4.76375 24.0674 
            7.46273 22.7168C7.84844 22.5239 8.09195 22.1296 8.09195 21.6983V4.59812C8.09195 3.31867 9.13289 2.27773 10.4123 
            2.27773H11.5877C12.8671 2.27773 13.908 3.31867 13.908 4.59812V20.9884C13.908 21.6174 14.4179 22.1273 15.047 22.1273C15.676 
            22.1273 16.1859 21.6175 16.1859 20.9884V19.6244H18.9268C19.5558 19.6244 20.0657 19.1145 20.0657 18.4855C20.0657 17.8564 
            19.5559 17.3466 18.9268 17.3466H16.1859V15.5737H17.2631C17.8921 15.5737 18.402 15.0638 18.402 14.4348C18.402 13.8058 
            17.8922 13.2959 17.2631 13.2959H16.1859V11.523H18.9268C19.5558 11.523 20.0657 11.0131 20.0657 10.3841C20.0657 9.755 
            19.5559 9.24516 18.9268 9.24516H16.1859V7.47234H17.2631C17.8921 7.47234 18.402 6.9625 18.402 6.33344C18.402 5.70438 
            17.8922 5.19453 17.2631 5.19453H16.1859V4.59812C16.1858 2.06273 14.123 0 11.5877 0H10.4123C7.87695 0 5.81422 2.06273 
            5.81422 4.59812V21.0223C2.71008 22.8516 0.807498 26.1485 0.802576 29.7887C0.795154 35.2877 5.25937 39.8673 10.7539 
            39.997C10.8372 39.9991 10.9199 40 11.0029 40C13.6822 39.9999 16.2031 38.975 18.1247 37.0984C20.1061 35.163 21.1975 
            32.572 21.1975 29.8024C21.1974 28.1384 20.7871 26.4869 20.0109 25.0262Z"/>
        <path d="M11 22.164C10.371 22.164 9.86108 21.6541 9.86108 21.0251V14.4955C9.86108 13.8666 10.3709 13.3566 11 13.3566C11.629 
            13.3566 12.1389 13.8665 12.1389 14.4955V21.0251C12.1389 21.6541 11.629 22.164 11 22.164Z"/>
        <path d="M10.9999 34.4854C13.5863 34.4854 15.683 32.3887 15.683 29.8023C15.683 27.2159 13.5863 25.1193 10.9999 
            25.1193C8.41353 25.1193 6.31686 27.2159 6.31686 29.8023C6.31686 32.3887 8.41353 34.4854 10.9999 34.4854Z"/>
    </symbol>

    <symbol id="saturate" viewBox="0 0 40 40">
        <path d="M15.8024 21.4511C15.0414 22.3952 14.8548 23.0725 13.8584 24.8462C14.5019 25.3523 15.7415 26.5227 16.6001 
            28.5379C18.3152 27.43 19.1148 27.2609 20.0237 26.3991C25.9562 20.7719 40.4878 0.60123 39.9874 0.0177263C39.4588 
            -0.602554 21.0262 14.9984 15.8024 21.4511Z"/>
        <path d="M12.1439 26.4133C9.56594 25.9002 7.02304 27.7355 5.32453 32.3211C3.62359 36.9063 0.588436 38.7422 7.62939e-05 
            38.6299C3.16828 39.9206 12.8284 43.2221 15.2297 30.6538C14.2112 27.6395 12.1439 26.4133 12.1439 26.4133Z"/>
    </symbol>

    <symbol id="sepia" viewBox="0 0 24 24">
        <path d="M7.08 11.25A4.84 4.84 0 0 1 8 9.05L4.43 5.49A9.88 9.88 0 0 0 2 11.25zM9.05 8a4.84 4.84 0 0 1 2.2-.91V2a9.88 9.88 0 0 0-5.76 
            2.43zM12.75 2v5A4.84 4.84 0 0 1 15 8l3.56-3.56A9.88 9.88 0 0 0 12.75 2zM8 15a4.84 4.84 0 0 1-.91-2.2H2a9.88 9.88 0 0 0 2.39 5.76zM11.25 
            16.92a4.84 4.84 0 0 1-2.2-.92l-3.56 3.57A9.88 9.88 0 0 0 11.25 22zM16 9.05a4.84 4.84 0 0 1 .91 2.2h5a9.88 9.88 0 0 0-2.39-5.76zM15 
            16a4.84 4.84 0 0 1-2.2.91v5a9.88 9.88 0 0 0 5.76-2.39zM16.92 12.75A4.84 4.84 0 0 1 16 15l3.56 3.56A9.88 9.88 0 0 0 22 12.75z"/>
    </symbol>

    <symbol id="opacity" viewBox="0 0 32 32">
        <rect height="4" width="4" x="6" y="6"/>
        <rect height="4" width="4" x="10" y="10"/>
        <rect height="4" width="4" x="14" y="6"/>
        <rect height="4" width="4" x="22" y="6"/>
        <rect height="4" width="4" x="6" y="14"/>
        <rect height="4" width="4" x="14" y="14"/>
        <rect height="4" width="4" x="22" y="14"/>
        <rect height="4" width="4" x="6" y="22"/>
        <rect height="4" width="4" x="14" y="22"/>
        <rect height="4" width="4" x="22" y="22"/>
        <rect height="4" width="4" x="18" y="10"/>
        <rect height="4" width="4" x="10" y="18"/>
        <rect height="4" width="4" x="18" y="18"/>
    </symbol> 

    <symbol id="blur" viewBox="0 0 40 40">
        <path d="M20 0C8.9543 0 0 8.9543 0 20C0 31.0457 8.9543 40 20 40C25.0723 40 29.7035 38.1118 33.229 35H20V32.5H35.6135C36.2442 
            31.7132 36.8168 30.8778 37.3243 30H20V27.5H38.5463C38.8735 26.6915 39.1492 25.857 39.37 25H20V22.5H39.8453C39.9475 21.681 40 20.8468 
            40 20H20V17.5H39.8453C39.7393 16.6489 39.5795 15.8144 39.37 15H20V12.5H38.5463C38.196 11.6349 37.787 10.7999 37.3243 
            10H20V7.5H35.6135C34.8918 6.59963 34.0938 5.76302 33.229 5H20V2.5H29.69C26.8195 0.9071 23.5157 0 20 0Z"/>
    </symbol>  

    <symbol id="rotate-right" viewBox="0 0 24 24">
        <path fill-rule="evenodd" d="M3.04477723,14 L11.5300586,5.51471863 L20.01534,14 L11.5300586,22.4852814 L3.04477723,14 Z M17.1869129,14 
            L11.5300586,8.34314575 L5.87320435,14 L11.5300586,19.6568542 L17.1869129,14 Z M19.3733306,4.28593933 L19.5323333,1.9325893 
            L21.5277839,2.0674107 L21.1269521,8 L15.5300586,8 L15.5300586,6 L18.2396307,6 C16.5615928,4.12319378 14.144019,3 11.5300586,3 
            C8.27920479,3 5.33209587,4.73720691 3.73348642,7.50072596 L2.00227469,6.49927404 C3.954821,3.12390371 7.5579471,1 11.5300586,1 
            C14.5433276,1 17.3442516,2.22227176 19.3733306,4.28593933 Z"/>
    </symbol> 

    <symbol id="rotate-left" viewBox="0 0 24 24">
         <path fill-rule="evenodd" d="M20.4852814,14 L12,22.4852814 L3.51471863,14 L12,5.51471863 L20.4852814,14 Z M6.34314575,14 L12,19.6568542 
            L17.6568542,14 L12,8.34314575 L6.34314575,14 Z M4.15672797,4.28593933 C6.18580699,2.22227176 8.98673097,1 12,1 C15.9721115,1 
            19.5752376,3.12390371 21.5277839,6.49927404 L19.7965722,7.50072596 C18.1979627,4.73720691 15.2508538,3 12,3 C9.38603956,3 
            6.96846584,4.12319378 5.29042786,6 L8,6 L8,8 L2.40310647,8 L2.00227469,2.0674107 L3.99772531,1.9325893 L4.15672797,4.28593933 Z"/>
    </symbol> 

    <symbol id="reflect-vertical" viewBox="0 0 24 24">
        <path d="m3 18 6-6-6-6v12zM15 12l6 6V6l-6 6zM11 3h2v3h-2zM11 8h2v3h-2zM11 13h2v3h-2zM11 18h2v3h-2z"/>
    </symbol> 

    <symbol id="reflect-horizontal" viewBox="0 0 24 24">
        <path d="M6 21h12l-6-6-6 6zM18 3H6l6 6 6-6zM3 11h3v2H3zM8 11h3v2H8zM13 11h3v2h-3zM18 11h3v2h-3z"/>
    </symbol> 

    <symbol id="radius" viewBox="0 0 24 24">
        <path d="M19 19h2v2h-2zM7 19h2v2H7zm8 0h2v2h-2zm-4 0h2v2h-2zm-8 0h2v2H3zm0-4h2v2H3zm0-8h2v2H3zm0 4h2v2H3zm0-8h2v2H3zm4 
            0h2v2H7zm12 12h2v2h-2zM16 3h-5v2h5c1.654 0 3 1.346 3 3v5h2V8c0-2.757-2.243-5-5-5z"/>
    </symbol> 

    <symbol id="border" viewBox="0 0 24 24">
        <path d="M11 7h2v2h-2zm0 8h2v2h-2zm-4-4h2v2H7zm8 0h2v2h-2zm-4 0h2v2h-2z"/>
        <path d="M19 3H3v18h18V3h-2zm0 4v12H5V5h14v2z"/>
    </symbol> 

    <symbol id="line-border" viewBox="0 0 1024 1024">
        <path d="M396 140h-56c-4.4 0-8 3.6-8 8v56c0 4.4 3.6 8 8 8h56c4.4 0 8-3.6 8-8v-56c0-4.4-3.6-8-8-8zm-44 684h-56c-4.4 0-8 3.6-8 8v56c0 
            4.4 3.6 8 8 8h56c4.4 0 8-3.6 8-8v-56c0-4.4-3.6-8-8-8zm524-204h-56c-4.4 0-8 3.6-8 8v56c0 4.4 3.6 8 8 8h56c4.4 0 8-3.6 8-8v-56c0-4.4-3.6-8-8-8zM192 
            344h-56c-4.4 0-8 3.6-8 8v56c0 4.4 3.6 8 8 8h56c4.4 0 8-3.6 8-8v-56c0-4.4-3.6-8-8-8zm0 160h-56c-4.4 0-8 3.6-8 8v56c0 4.4 3.6 8 8 8h56c4.4 
            0 8-3.6 8-8v-56c0-4.4-3.6-8-8-8zm0 160h-56c-4.4 0-8 3.6-8 8v56c0 4.4 3.6 8 8 8h56c4.4 0 8-3.6 8-8v-56c0-4.4-3.6-8-8-8zm0 160h-56c-4.4 0-8 
            3.6-8 8v56c0 4.4 3.6 8 8 8h56c4.4 0 8-3.6 8-8v-56c0-4.4-3.6-8-8-8zm320 0h-56c-4.4 0-8 3.6-8 8v56c0 4.4 3.6 8 8 8h56c4.4 0 
            8-3.6 8-8v-56c0-4.4-3.6-8-8-8zm160 0h-56c-4.4 0-8 3.6-8 8v56c0 4.4 3.6 8 8 8h56c4.4 0 8-3.6 8-8v-56c0-4.4-3.6-8-8-8zm140-284c0 4.4 3.6 8 
            8 8h56c4.4 0 8-3.6 8-8V370c0-127-103-230-230-230H484c-4.4 0-8 3.6-8 8v56c0 4.4 3.6 8 8 8h170c87.3 0 158 70.7 158 158v170zM236 96H92c-4.4 
            0-8 3.6-8 8v144c0 4.4 3.6 8 8 8h144c4.4 0 8-3.6 8-8V104c0-4.4-3.6-8-8-8zm-48 101.6c0 1.3-1.1 2.4-2.4 2.4h-43.2c-1.3 0-2.4-1.1-2.4-2.4v-43.2c0-1.3 
            1.1-2.4 2.4-2.4h43.2c1.3 0 2.4 1.1 2.4 2.4v43.2zM920 780H776c-4.4 0-8 3.6-8 8v144c0 4.4 3.6 8 8 8h144c4.4 0 8-3.6 8-8V788c0-4.4-3.6-8-8-8zm-48 
            101.6c0 1.3-1.1 2.4-2.4 2.4h-43.2c-1.3 0-2.4-1.1-2.4-2.4v-43.2c0-1.3 1.1-2.4 2.4-2.4h43.2c1.3 0 2.4 1.1 2.4 2.4v43.2z"/>
    </symbol> 
</svg>